<svg width="28" height="28" viewBox="0 0 28 28" fill="none" xmlns="http://www.w3.org/2000/svg">
<path fill-rule="evenodd" clip-rule="evenodd" d="M6.06528 3.84902C6.76786 2.33331 9.17879 2.33331 14.0007 2.33331C18.8225 2.33331 21.2334 2.33331 21.936 3.84902C21.9964 3.97931 22.0474 4.11464 22.0884 4.25376C22.5657 5.87216 20.8609 7.74794 17.4513 11.4995L15.1673 14L17.4513 16.5004C20.8609 20.252 22.5657 22.1278 22.0884 23.7462C22.0474 23.8853 21.9964 24.0206 21.936 24.1509C21.2334 25.6666 18.8225 25.6666 14.0007 25.6666C9.17879 25.6666 6.76786 25.6666 6.06528 24.1509C6.00488 24.0206 5.95394 23.8853 5.91291 23.7462C5.43564 22.1278 7.14043 20.252 10.55 16.5004L12.834 14L10.55 11.4995C7.14043 7.74794 5.43564 5.87216 5.91291 4.25376C5.95394 4.11464 6.00488 3.97931 6.06528 3.84902ZM11.6673 20.7083C11.1841 20.7083 10.7923 21.1001 10.7923 21.5833C10.7923 22.0666 11.1841 22.4583 11.6673 22.4583H16.334C16.8172 22.4583 17.209 22.0666 17.209 21.5833C17.209 21.1001 16.8172 20.7083 16.334 20.7083H11.6673ZM10.7923 6.41665C10.7923 5.9334 11.1841 5.54165 11.6673 5.54165H16.334C16.8172 5.54165 17.209 5.9334 17.209 6.41665C17.209 6.8999 16.8172 7.29165 16.334 7.29165H11.6673C11.1841 7.29165 10.7923 6.8999 10.7923 6.41665Z" fill="#C2B4A3"/>
</svg>
