<svg width="29" height="28" viewBox="0 0 29 28" fill="none" xmlns="http://www.w3.org/2000/svg">
<path fill-rule="evenodd" clip-rule="evenodd" d="M8.0549 2.33331H21.2771C21.6383 2.33331 21.8188 2.33331 21.9711 2.34729C23.6631 2.5026 25.0047 3.91012 25.1527 5.6854C25.166 5.84512 25.166 6.03456 25.166 6.41346V23.6364C25.166 24.6544 23.9309 25.0863 23.3487 24.2719C22.9449 23.707 22.1372 23.707 21.7333 24.2719L21.2285 24.9781C20.5723 25.8962 19.2598 25.8962 18.6035 24.9781C17.9473 24.0601 16.6348 24.0601 15.9785 24.9781C15.3223 25.8962 14.0098 25.8962 13.3535 24.9781C12.6973 24.0601 11.3848 24.0601 10.7285 24.9781C10.0723 25.8962 8.75977 25.8962 8.10352 24.9781L7.59871 24.2719C7.19486 23.707 6.38717 23.707 5.98332 24.2719C5.40117 25.0863 4.16602 24.6544 4.16602 23.6364V6.41346C4.16602 6.03456 4.16602 5.84512 4.17933 5.6854C4.32737 3.91012 5.66891 2.5026 7.36097 2.34729C7.5132 2.33331 7.69377 2.33331 8.0549 2.33331ZM12.9514 8.71459C12.6097 8.37289 12.0557 8.37289 11.714 8.71459C11.3723 9.0563 11.3723 9.61032 11.714 9.95203L13.4286 11.6667L11.714 13.3813C11.3723 13.723 11.3723 14.277 11.714 14.6187C12.0557 14.9604 12.6097 14.9604 12.9514 14.6187L14.666 12.9041L16.3806 14.6187C16.7223 14.9604 17.2764 14.9604 17.6181 14.6187C17.9598 14.277 17.9598 13.723 17.6181 13.3812L15.9035 11.6667L17.6181 9.95205C17.9598 9.61034 17.9598 9.05632 17.6181 8.71461C17.2764 8.37291 16.7224 8.37291 16.3806 8.71461L14.666 10.4292L12.9514 8.71459ZM9.41602 17.2083C8.93277 17.2083 8.54102 17.6001 8.54102 18.0833C8.54102 18.5666 8.93277 18.9583 9.41602 18.9583H19.916C20.3993 18.9583 20.791 18.5666 20.791 18.0833C20.791 17.6001 20.3993 17.2083 19.916 17.2083H9.41602Z" fill="#C2B4A3"/>
</svg>
