<svg width="154" height="172" viewBox="0 0 154 172" fill="none" xmlns="http://www.w3.org/2000/svg">
<path d="M74.8199 0.435851C87.8031 -22.8547 94.2947 -34.5 104 -34.5C113.705 -34.5 120.197 -22.8547 133.18 0.435832L136.539 6.46138C140.228 13.0798 142.073 16.3891 144.949 18.5725C147.826 20.756 151.408 21.5665 158.572 23.1875L165.095 24.6633C190.306 30.3677 202.912 33.2199 205.911 42.8642C208.911 52.5086 200.317 62.558 183.129 82.6567L178.682 87.8565C173.798 93.568 171.356 96.4237 170.257 99.9566C169.159 103.49 169.528 107.3 170.266 114.92L170.939 121.858C173.537 148.674 174.837 162.082 166.985 168.042C159.133 174.003 147.33 168.568 123.724 157.7L117.617 154.888C110.909 151.799 107.555 150.255 104 150.255C100.445 150.255 97.0907 151.799 90.3827 154.888L84.2757 157.699C60.6699 168.568 48.8671 174.003 41.0153 168.042C33.1635 162.082 34.4628 148.674 37.0613 121.858L37.7336 114.92C38.472 107.3 38.8412 103.49 37.7426 99.9566C36.644 96.4237 34.2019 93.568 29.3177 87.8565L24.871 82.6567C7.6833 62.558 -0.910549 52.5086 2.08857 42.8642C5.08768 33.2199 17.6935 30.3677 42.9052 24.6633L49.4278 23.1875C56.5922 21.5665 60.1744 20.756 63.0507 18.5725C65.9269 16.3891 67.7716 13.0798 71.461 6.4614L74.8199 0.435851Z" stroke="#262626" stroke-width="2" stroke-dasharray="16 6"/>
</svg>
