<svg width="29" height="29" viewBox="0 0 29 29" fill="none" xmlns="http://www.w3.org/2000/svg">
<path d="M24.7662 10.0536C25.4431 10.7224 25.7342 11.5645 25.8703 12.5646C26.0013 13.5279 26.0013 14.7527 26.0013 16.2723V16.3942C26.0013 17.9138 26.0013 19.1386 25.8703 20.1019C25.7342 21.102 25.4431 21.9441 24.7662 22.6129C24.0894 23.2817 23.2372 23.5694 22.225 23.7038C21.2501 23.8334 20.0106 23.8333 18.4728 23.8333H12.727C11.1891 23.8333 9.94962 23.8334 8.97473 23.7038C7.96258 23.5694 7.11036 23.2817 6.43352 22.6129C6.0229 22.2072 5.75422 21.7376 5.57601 21.2078C6.59271 21.3336 7.85053 21.3335 9.30381 21.3334H15.1483C16.6435 21.3335 17.9319 21.3336 18.9636 21.1965C20.0692 21.0496 21.1291 20.7184 21.9887 19.869C22.8484 19.0195 23.1836 17.9723 23.3323 16.8797C23.471 15.8603 23.4709 14.5873 23.4708 13.1098V12.8903C23.4709 11.454 23.471 10.2108 23.3435 9.20605C23.8801 9.38213 24.3554 9.64768 24.7662 10.0536Z" fill="#C2B4A3"/>
<path d="M12.226 11.0556C11.1392 11.0556 10.2582 11.9261 10.2582 13C10.2582 14.0739 11.1392 14.9445 12.226 14.9445C13.3128 14.9445 14.1939 14.0739 14.1939 13C14.1939 11.9261 13.3128 11.0556 12.226 11.0556Z" fill="#C2B4A3"/>
<path fill-rule="evenodd" clip-rule="evenodd" d="M3.65602 7.30963C2.66797 8.28595 2.66797 9.85731 2.66797 13C2.66797 16.1428 2.66797 17.7141 3.65602 18.6904C4.64408 19.6668 6.23433 19.6668 9.41484 19.6668H15.0372C18.2177 19.6668 19.808 19.6668 20.796 18.6904C21.7841 17.7141 21.7841 16.1428 21.7841 13C21.7841 9.85731 21.7841 8.28595 20.796 7.30963C19.808 6.33331 18.2177 6.33331 15.0372 6.33331H9.41484C6.23433 6.33331 4.64408 6.33331 3.65602 7.30963ZM8.57148 13C8.57148 11.0057 10.2077 9.38889 12.226 9.38889C14.2444 9.38889 15.8806 11.0057 15.8806 13C15.8806 14.9944 14.2444 16.6112 12.226 16.6112C10.2077 16.6112 8.57148 14.9944 8.57148 13ZM18.4107 16.0556C17.9449 16.0556 17.5673 15.6825 17.5673 15.2223V10.7778C17.5673 10.3176 17.9449 9.94445 18.4107 9.94445C18.8764 9.94445 19.254 10.3176 19.254 10.7778V15.2223C19.254 15.6825 18.8764 16.0556 18.4107 16.0556ZM5.19805 15.2223C5.19805 15.6825 5.57563 16.0556 6.0414 16.0556C6.50718 16.0556 6.88476 15.6825 6.88476 15.2223V10.7778C6.88476 10.3176 6.50718 9.94445 6.0414 9.94445C5.57563 9.94445 5.19805 10.3176 5.19805 10.7778L5.19805 15.2223Z" fill="#C2B4A3"/>
</svg>
