<svg width="29" height="28" viewBox="0 0 29 28" fill="none" xmlns="http://www.w3.org/2000/svg">
<path d="M27.2907 6.02266C26.4667 6.3773 25.6003 6.62426 24.7131 6.75742C25.1279 6.68631 25.7382 5.9397 25.9812 5.6375C26.3503 5.18166 26.6316 4.66128 26.8108 4.1028C26.8108 4.06132 26.8522 4.00207 26.8108 3.97244C26.7899 3.96103 26.7664 3.95505 26.7426 3.95505C26.7188 3.95505 26.6954 3.96103 26.6745 3.97244C25.7111 4.49413 24.6858 4.8923 23.6228 5.15754C23.5858 5.16885 23.5464 5.16987 23.5088 5.16048C23.4712 5.15108 23.4369 5.13163 23.4095 5.10421C23.3268 5.00568 23.2377 4.91265 23.1429 4.82571C22.7093 4.43726 22.2174 4.11934 21.6852 3.88356C20.9668 3.58881 20.1908 3.46116 19.4158 3.51025C18.6638 3.55774 17.9296 3.75944 17.2589 4.1028C16.5984 4.4648 16.0179 4.95659 15.5523 5.54862C15.0626 6.15797 14.709 6.86513 14.5154 7.62254C14.3557 8.34299 14.3376 9.08761 14.462 9.81497C14.462 9.9394 14.462 9.95718 14.3554 9.9394C10.1305 9.31723 6.66411 7.81808 3.83173 4.60054C3.7073 4.45833 3.64212 4.45833 3.54138 4.60054C2.30888 6.47299 2.90736 9.43574 4.44798 10.8993C4.65537 11.0949 4.86869 11.2845 5.09386 11.4623C4.38749 11.4121 3.69838 11.2207 3.06734 10.8993C2.94883 10.8223 2.88365 10.8638 2.87773 11.006C2.86093 11.2031 2.86093 11.4014 2.87773 11.5985C3.00137 12.5434 3.37374 13.4385 3.95676 14.1923C4.53978 14.946 5.31254 15.5314 6.196 15.8886C6.41137 15.9808 6.63578 16.0503 6.86558 16.096C6.21166 16.2247 5.54098 16.2447 4.88054 16.1552C4.73833 16.1256 4.685 16.2026 4.73833 16.3389C5.60938 18.7091 7.49961 19.432 8.88617 19.835C9.07578 19.8646 9.2654 19.8646 9.47872 19.912C9.47872 19.912 9.47872 19.912 9.44316 19.9475C9.03431 20.6942 7.3811 21.1978 6.62263 21.4585C5.23825 21.9558 3.76223 22.1459 2.29703 22.0155C2.06594 21.98 2.01261 21.9859 1.95335 22.0155C1.8941 22.0452 1.95335 22.1103 2.01853 22.1696C2.31481 22.3651 2.61108 22.537 2.91921 22.7029C3.8365 23.2032 4.80626 23.6007 5.81084 23.888C11.0134 25.322 16.8678 24.2672 20.7727 20.386C23.8421 17.3403 24.9205 13.1392 24.9205 8.93207C24.9205 8.77208 25.1161 8.67727 25.2287 8.59432C26.0052 7.98926 26.6898 7.27471 27.2611 6.47299C27.36 6.35349 27.4108 6.20133 27.4033 6.04636C27.4033 5.95748 27.4033 5.97525 27.2907 6.02266Z" fill="#C2B4A3"/>
</svg>
