<svg width="160" height="121" viewBox="0 0 160 121" fill="none" xmlns="http://www.w3.org/2000/svg">
<path d="M8.70472 -22.9623C-0.678915 -13.5786 -0.678915 1.63525 8.70472 11.0189L21.9359 24.25C22.0352 24.1352 22.1394 24.023 22.2485 23.9139L55.5819 -9.4194C55.6906 -9.52817 55.8024 -9.63209 55.9169 -9.73117L42.6859 -22.9623C33.3022 -32.3459 18.0883 -32.3459 8.70472 -22.9623Z" stroke="#262626" stroke-width="1.5" stroke-dasharray="16 6"/>
<path d="M64.7325 -0.915644C64.6334 -0.801118 64.5295 -0.689335 64.4207 -0.580563L31.0874 32.7528C30.9783 32.8619 30.8661 32.9661 30.7513 33.0654L110.648 112.962C120.032 122.346 135.246 122.346 144.629 112.962C154.013 103.579 154.013 88.3648 144.629 78.9812L64.7325 -0.915644Z" stroke="#262626" stroke-width="1.5" stroke-dasharray="16 6"/>
<path d="M110.834 -35.7734C112.175 -39.1866 116.988 -39.1866 118.329 -35.7734L121.916 -26.646C122.325 -25.604 123.147 -24.7791 124.185 -24.3681L133.279 -20.7683C136.68 -19.4222 136.68 -14.5916 133.279 -13.2455L124.185 -9.64567C123.147 -9.23468 122.325 -8.40981 121.916 -7.36773L118.329 1.75965C116.988 5.17286 112.175 5.17286 110.834 1.75965L107.247 -7.36773C106.838 -8.4098 106.016 -9.23468 104.978 -9.64567L95.8841 -13.2455C92.4835 -14.5916 92.4835 -19.4222 95.8841 -20.7683L104.978 -24.3681C106.016 -24.7791 106.838 -25.604 107.247 -26.646L110.834 -35.7734Z" stroke="#262626" stroke-width="1.5" stroke-dasharray="16 6"/>
<path d="M143.06 21.0788C144.401 17.6656 149.214 17.6656 150.555 21.0788L151.863 24.4067C152.272 25.4488 153.094 26.2737 154.133 26.6846L157.448 27.9971C160.849 29.3433 160.849 34.1738 157.448 35.52L154.133 36.8325C153.094 37.2435 152.272 38.0683 151.863 39.1104L150.555 42.4383C149.214 45.8515 144.401 45.8515 143.06 42.4383L141.753 39.1104C141.343 38.0683 140.521 37.2435 139.483 36.8325L136.167 35.52C132.767 34.1738 132.767 29.3433 136.167 27.9971L139.483 26.6846C140.521 26.2737 141.343 25.4488 141.753 24.4067L143.06 21.0788Z" stroke="#262626" stroke-width="1.5" stroke-dasharray="16 6"/>
<path d="M19.4436 72.5599C20.7848 69.1467 25.5976 69.1467 26.9388 72.5599L28.2464 75.8878C28.6559 76.9299 29.4777 77.7548 30.516 78.1658L33.8316 79.4783C37.2322 80.8244 37.2322 85.655 33.8316 87.0011L30.516 88.3136C29.4777 88.7246 28.6559 89.5495 28.2464 90.5915L26.9388 93.9194C25.5976 97.3326 20.7848 97.3326 19.4436 93.9194L18.136 90.5915C17.7265 89.5495 16.9047 88.7246 15.8664 88.3136L12.5508 87.0011C9.15017 85.655 9.15017 80.8244 12.5508 79.4783L15.8664 78.1658C16.9047 77.7548 17.7265 76.9299 18.136 75.8878L19.4436 72.5599Z" stroke="#262626" stroke-width="1.5" stroke-dasharray="16 6"/>
</svg>
