<svg width="154" height="180" viewBox="0 0 154 180" fill="none" xmlns="http://www.w3.org/2000/svg">
<path d="M17.1908 1.8359C17.2246 2.59941 17.2579 3.35491 17.2876 4.10124C17.9786 21.5082 19.8482 41.8626 25.4523 60.8068L17.3162 56.2867C9.60395 52.002 5.74776 49.8596 3.62408 46.2505C1.50039 42.6413 1.50027 38.23 1.50003 29.4074L1.50001 28.664C1.49972 17.967 1.49958 12.6185 4.40174 8.59183C6.74037 5.34705 10.4893 3.61871 17.1672 1.29981M17.1908 1.8359C17.1829 1.65764 17.175 1.47893 17.1672 1.29981M17.1908 1.8359L17.1672 1.29981M190.812 1.83589C190.779 2.59941 190.745 3.35491 190.716 4.10124C190.025 21.5075 188.155 41.8608 182.552 60.8044L190.683 56.2867C198.395 52.002 202.252 49.8596 204.375 46.2505C206.499 42.6413 206.499 38.23 206.499 29.4074L206.499 28.664C206.5 17.967 206.5 12.6185 203.598 8.59183C201.259 5.34765 197.511 3.61934 190.836 1.30108M190.812 1.83589C190.82 1.65805 190.828 1.47978 190.836 1.30108M190.812 1.83589L190.836 1.30108M32.6505 3.49131C32.1351 -9.49025 31.8774 -15.981 36.7535 -21.9865C41.6296 -27.9919 47.4656 -28.9766 59.1376 -30.9459C70.6592 -32.8898 85.7202 -34.5 104.002 -34.5C122.283 -34.5 137.344 -32.8898 148.866 -30.9459C160.538 -28.9766 166.374 -27.9919 171.25 -21.9865C176.126 -15.981 175.868 -9.49025 175.353 3.49131C173.583 48.0582 163.966 103.724 111.688 108.648V144.875H126.347C131.233 144.875 135.44 148.324 136.398 153.115L138.338 162.812H165.5C169.746 162.812 173.188 166.254 173.188 170.5C173.188 174.746 169.746 178.188 165.5 178.188H42.5C38.2543 178.188 34.8125 174.746 34.8125 170.5C34.8125 166.254 38.2543 162.812 42.5 162.812H69.6625L71.602 153.115C72.5603 148.324 76.767 144.875 81.653 144.875H96.3125V108.648C44.0371 103.722 34.4198 48.0573 32.6505 3.49131ZM112.754 6.73075L113.762 8.53841C114.869 10.524 115.422 11.5167 116.285 12.1718C117.148 12.8268 118.222 13.0699 120.372 13.5562L122.328 13.999C129.892 15.7103 133.674 16.566 134.573 19.4593C135.473 22.3526 132.895 25.3674 127.739 31.397L126.405 32.957C124.939 34.6704 124.207 35.5271 123.877 36.587C123.548 37.6469 123.658 38.7899 123.88 41.076L124.082 43.1573C124.861 51.2021 125.251 55.2245 122.895 57.0127C120.54 58.8008 116.999 57.1705 109.917 53.9098L108.085 53.0663C106.073 52.1397 105.067 51.6764 104 51.6764C102.933 51.6764 101.927 52.1397 99.9148 53.0663L98.0827 53.9098C91.001 57.1705 87.4601 58.8008 85.1046 57.0127C82.749 55.2245 83.1388 51.2021 83.9184 43.1573L84.1201 41.076C84.3416 38.7899 84.4524 37.6469 84.1228 36.587C83.7932 35.5271 83.0606 34.6704 81.5953 32.957L80.2613 31.397C75.105 25.3674 72.5268 22.3526 73.4266 19.4593C74.3263 16.566 78.1081 15.7103 85.6716 13.999L87.6284 13.5562C89.7777 13.0699 90.8523 12.8268 91.7152 12.1718C92.5781 11.5167 93.1315 10.5239 94.2383 8.53842L95.246 6.73076C99.1409 -0.256396 101.088 -3.75 104 -3.75C106.912 -3.75 108.859 -0.256414 112.754 6.73075Z" stroke="#262626" stroke-width="2" stroke-linecap="round" stroke-dasharray="16 6"/>
</svg>
