<svg width="153" height="115" viewBox="0 0 153 115" fill="none" xmlns="http://www.w3.org/2000/svg">
<path d="M74.0837 13.799H75.0837V12.6373L73.9349 12.8101L74.0837 13.799ZM86.5837 13.799L86.7324 12.8101L85.5837 12.6373V13.799H86.5837ZM36.1395 10.8058L35.4324 10.0987L36.1395 10.8058ZM36.1395 -0.979317L35.4324 -0.272211V-0.272209L36.1395 -0.979317ZM24.3544 10.8058L25.0615 10.0987H25.0615L24.3544 10.8058ZM136.313 99.195L135.606 99.9021L136.313 99.195ZM136.313 110.98L135.606 110.273L136.313 110.98ZM124.528 99.195L125.235 99.9021L124.528 99.195ZM124.528 110.98L125.235 110.273L124.528 110.98ZM124.528 10.8058L125.235 10.0987L124.528 10.8058ZM136.313 10.8058L135.606 10.0987L136.313 10.8058ZM124.528 -0.979317L125.235 -0.272209V-0.272211L124.528 -0.979317ZM136.313 -0.979317L135.606 -0.272211V-0.272209L136.313 -0.979317ZM36.1395 110.979L35.4324 110.272L36.1395 110.979ZM24.3544 110.979L25.0615 110.272H25.0615L24.3544 110.979ZM36.1395 99.1942L35.4324 99.9013L36.1395 99.1942ZM24.3544 99.1942L25.0615 99.9013H25.0615L24.3544 99.1942ZM89.667 -15.8334C89.667 -17.6911 89.1232 -19.4249 88.1857 -20.8806L86.5042 -19.7978C87.24 -18.6552 87.667 -17.2957 87.667 -15.8334H89.667ZM85.3809 -23.6854C83.9252 -24.6229 82.1914 -25.1667 80.3337 -25.1667V-23.1667C81.796 -23.1667 83.1555 -22.7397 84.2981 -22.0039L85.3809 -23.6854ZM80.3337 -25.1667C78.4759 -25.1667 76.7421 -24.6229 75.2864 -23.6854L76.3692 -22.0039C77.5118 -22.7397 78.8713 -23.1667 80.3337 -23.1667V-25.1667ZM72.4816 -20.8806C71.5441 -19.4249 71.0003 -17.6911 71.0003 -15.8334H73.0003C73.0003 -17.2957 73.4273 -18.6552 74.1631 -19.7978L72.4816 -20.8806ZM71.0003 -15.8334C71.0003 -13.9756 71.5441 -12.2418 72.4816 -10.7861L74.1631 -11.8689C73.4273 -13.0115 73.0003 -14.371 73.0003 -15.8334H71.0003ZM75.2864 -7.98127C76.7421 -7.04383 78.4759 -6.50002 80.3337 -6.50002V-8.50002C78.8713 -8.50002 77.5118 -8.92701 76.3692 -9.66277L75.2864 -7.98127ZM80.3337 -6.50002C82.1914 -6.50002 83.9252 -7.04383 85.3809 -7.98127L84.2981 -9.66277C83.1555 -8.92701 81.796 -8.50002 80.3337 -8.50002V-6.50002ZM88.1857 -10.7861C89.1232 -12.2418 89.667 -13.9756 89.667 -15.8334H87.667C87.667 -14.371 87.24 -13.0115 86.5042 -11.8689L88.1857 -10.7861ZM73.9349 12.8101C71.4819 13.1791 69.0971 13.7569 66.7993 14.525L67.4333 16.4218C69.6225 15.6901 71.8947 15.1395 74.2324 14.7878L73.9349 12.8101ZM61.7012 16.6062C57.2631 18.7639 53.2559 21.668 49.8424 25.1549L51.2716 26.554C54.5263 23.2293 58.3464 20.4611 62.5757 18.4049L61.7012 16.6062ZM46.2518 29.3276C43.329 33.2018 41.0511 37.5909 39.5783 42.3352L41.4884 42.9282C42.8915 38.4083 45.0621 34.2255 47.8484 30.5321L46.2518 29.3276ZM38.2911 47.6891C37.8807 50.0652 37.667 52.5081 37.667 55H39.667C39.667 52.6226 39.8709 50.2937 40.2619 48.0294L38.2911 47.6891ZM37.667 55C37.667 57.7607 37.9293 60.461 38.4307 63.0772L40.3949 62.7008C39.9172 60.208 39.667 57.6337 39.667 55H37.667ZM40.0033 68.9597C41.7988 74.1478 44.5666 78.8809 48.088 82.9413L49.5989 81.631C46.2415 77.7596 43.6039 73.2484 41.8933 68.3056L40.0033 68.9597ZM52.3924 87.2457C56.4528 90.7671 61.1859 93.5349 66.3739 95.3304L67.028 93.4404C62.0852 91.7298 57.5741 89.0922 53.7027 85.7348L52.3924 87.2457ZM72.2565 96.903C74.8727 97.4044 77.573 97.6667 80.3337 97.6667V95.6667C77.7 95.6667 75.1256 95.4165 72.6329 94.9388L72.2565 96.903ZM80.3337 97.6667C83.0943 97.6667 85.7947 97.4044 88.4108 96.903L88.0344 94.9388C85.5417 95.4165 82.9674 95.6667 80.3337 95.6667V97.6667ZM94.2934 95.3304C99.4814 93.5349 104.215 90.7671 108.275 87.2457L106.965 85.7347C103.093 89.0922 98.5821 91.7298 93.6393 93.4404L94.2934 95.3304ZM112.579 82.9413C116.101 78.8809 118.869 74.1478 120.664 68.9597L118.774 68.3056C117.063 73.2484 114.426 77.7596 111.068 81.631L112.579 82.9413ZM122.237 63.0772C122.738 60.461 123 57.7607 123 55H121C121 57.6337 120.75 60.208 120.272 62.7008L122.237 63.0772ZM123 55C123 52.5081 122.787 50.0652 122.376 47.6891L120.405 48.0294C120.796 50.2937 121 52.6226 121 55H123ZM121.089 42.3352C119.616 37.5909 117.338 33.2018 114.416 29.3276L112.819 30.5321C115.605 34.2255 117.776 38.4083 119.179 42.9282L121.089 42.3352ZM110.825 25.1549C107.411 21.668 103.404 18.7639 98.9661 16.6062L98.0916 18.4049C102.321 20.4611 106.141 23.2293 109.396 26.554L110.825 25.1549ZM93.8681 14.525C91.5702 13.7569 89.1854 13.1791 86.7324 12.8101L86.4349 14.7878C88.7726 15.1395 91.0448 15.6901 93.234 16.4218L93.8681 14.525ZM85.5837 13.799V25.7509H87.5837V13.799H85.5837ZM85.5837 34.7148V46.6667H87.5837V34.7148H85.5837ZM85.5837 46.6667C85.5837 47.714 85.278 48.6869 84.7514 49.5046L86.4329 50.5875C87.1612 49.4566 87.5837 48.1094 87.5837 46.6667H85.5837ZM83.1716 51.0844C82.3539 51.611 81.381 51.9167 80.3337 51.9167V53.9167C81.7764 53.9167 83.1235 53.4942 84.2545 52.7659L83.1716 51.0844ZM80.3337 51.9167C79.2863 51.9167 78.3135 51.611 77.4957 51.0844L76.4129 52.7659C77.5438 53.4942 78.8909 53.9167 80.3337 53.9167V51.9167ZM75.9159 49.5046C75.3893 48.6869 75.0837 47.714 75.0837 46.6667H73.0837C73.0837 48.1094 73.5061 49.4566 74.2344 50.5875L75.9159 49.5046ZM75.0837 46.6667V34.7148H73.0837V46.6667H75.0837ZM75.0837 25.7509V13.799H73.0837V25.7509H75.0837ZM143.834 55C143.834 53.5376 144.261 52.1781 144.996 51.0356L143.315 49.9527C142.377 51.4084 141.834 53.1422 141.834 55H143.834ZM147.203 48.8294C148.345 48.0936 149.705 47.6666 151.167 47.6666V45.6666C149.309 45.6666 147.575 46.2104 146.12 47.1479L147.203 48.8294ZM151.167 47.6666C152.629 47.6666 153.989 48.0936 155.131 48.8294L156.214 47.1479C154.759 46.2104 153.025 45.6666 151.167 45.6666V47.6666ZM157.338 51.0356C158.073 52.1781 158.5 53.5376 158.5 55H160.5C160.5 53.1422 159.957 51.4084 159.019 49.9527L157.338 51.0356ZM158.5 55C158.5 56.4623 158.073 57.8219 157.338 58.9644L159.019 60.0472C159.957 58.5915 160.5 56.8577 160.5 55H158.5ZM155.131 61.1706C153.989 61.9063 152.629 62.3333 151.167 62.3333V64.3333C153.025 64.3333 154.759 63.7895 156.214 62.8521L155.131 61.1706ZM151.167 62.3333C149.705 62.3333 148.345 61.9063 147.203 61.1706L146.12 62.8521C147.575 63.7895 149.309 64.3333 151.167 64.3333V62.3333ZM144.996 58.9644C144.261 57.8219 143.834 56.4623 143.834 55H141.834C141.834 56.8577 142.377 58.5915 143.315 60.0472L144.996 58.9644ZM9.50032 62.3333C8.03799 62.3333 6.67844 61.9063 5.53592 61.1706L4.45307 62.8521C5.90877 63.7895 7.64257 64.3333 9.50032 64.3333V62.3333ZM3.32974 58.9644C2.59398 57.8219 2.16699 56.4623 2.16699 55H0.166992C0.166992 56.8577 0.710799 58.5915 1.64825 60.0472L3.32974 58.9644ZM2.16699 55C2.16699 53.5376 2.59398 52.1781 3.32974 51.0356L1.64824 49.9527C0.710799 51.4084 0.166992 53.1422 0.166992 55H2.16699ZM5.53591 48.8294C6.67844 48.0936 8.03799 47.6666 9.50033 47.6666V45.6666C7.64257 45.6666 5.90877 46.2104 4.45306 47.1479L5.53591 48.8294ZM9.50033 47.6666C10.9627 47.6666 12.3222 48.0936 13.4647 48.8294L14.5476 47.1479C13.0919 46.2104 11.3581 45.6666 9.50033 45.6666V47.6666ZM15.6709 51.0356C16.4067 52.1781 16.8337 53.5376 16.8337 55H18.8337C18.8337 53.1422 18.2899 51.4084 17.3524 49.9527L15.6709 51.0356ZM16.8337 55C16.8337 56.4623 16.4067 57.8219 15.6709 58.9644L17.3524 60.0472C18.2899 58.5915 18.8337 56.8577 18.8337 55H16.8337ZM13.4647 61.1706C12.3222 61.9063 10.9627 62.3333 9.50032 62.3333V64.3333C11.3581 64.3333 13.0919 63.7895 14.5476 62.8521L13.4647 61.1706ZM35.4324 10.0987C34.3983 11.1327 33.1351 11.7921 31.8069 12.0798L32.2302 14.0345C33.9224 13.668 35.5329 12.8265 36.8466 11.5129L35.4324 10.0987ZM28.6869 12.0798C27.3588 11.7921 26.0955 11.1327 25.0615 10.0987L23.6473 11.5129C24.9609 12.8265 26.5714 13.668 28.2636 14.0345L28.6869 12.0798ZM25.0615 10.0987C24.0274 9.06466 23.368 7.80139 23.0804 6.47324L21.1257 6.89655C21.4922 8.58876 22.3336 10.1993 23.6473 11.5129L25.0615 10.0987ZM23.0804 3.35324C23.368 2.02509 24.0274 0.761814 25.0615 -0.272209L23.6473 -1.68642C22.3336 -0.372789 21.4922 1.23772 21.1257 2.92993L23.0804 3.35324ZM25.0615 -0.272209C26.0955 -1.30623 27.3588 -1.96566 28.6869 -2.25328L28.2636 -4.20797C26.5714 -3.84151 24.9609 -3.00006 23.6473 -1.68642L25.0615 -0.272209ZM31.8069 -2.25328C33.1351 -1.96566 34.3983 -1.30623 35.4324 -0.272211L36.8466 -1.68642C35.5329 -3.00006 33.9224 -3.84151 32.2302 -4.20797L31.8069 -2.25328ZM35.4324 -0.272209C36.4664 0.761814 37.1258 2.02509 37.4134 3.35324L39.3681 2.92993C39.0017 1.23772 38.1602 -0.372791 36.8466 -1.68642L35.4324 -0.272209ZM37.4134 6.47324C37.1258 7.80139 36.4664 9.06466 35.4324 10.0987L36.8466 11.5129C38.1602 10.1993 39.0017 8.58876 39.3681 6.89655L37.4134 6.47324ZM137.02 98.4879C135.706 97.1742 134.096 96.3328 132.404 95.9663L131.98 97.921C133.309 98.2086 134.572 98.868 135.606 99.9021L137.02 98.4879ZM128.437 95.9663C126.745 96.3328 125.134 97.1742 123.821 98.4879L125.235 99.9021C126.269 98.868 127.532 98.2086 128.86 97.921L128.437 95.9663ZM123.821 98.4879C122.507 99.8015 121.666 101.412 121.299 103.104L123.254 103.528C123.541 102.199 124.201 100.936 125.235 99.9021L123.821 98.4879ZM121.299 107.071C121.666 108.763 122.507 110.374 123.821 111.687L125.235 110.273C124.201 109.239 123.541 107.976 123.254 106.648L121.299 107.071ZM123.821 111.687C125.134 113.001 126.745 113.842 128.437 114.209L128.86 112.254C127.532 111.966 126.269 111.307 125.235 110.273L123.821 111.687ZM132.404 114.209C134.096 113.842 135.706 113.001 137.02 111.687L135.606 110.273C134.572 111.307 133.309 111.966 131.98 112.254L132.404 114.209ZM137.02 111.687C138.334 110.374 139.175 108.763 139.542 107.071L137.587 106.648C137.299 107.976 136.64 109.239 135.606 110.273L137.02 111.687ZM139.542 103.104C139.175 101.412 138.334 99.8015 137.02 98.4879L135.606 99.9021C136.64 100.936 137.299 102.199 137.587 103.528L139.542 103.104ZM125.235 10.0987C124.201 9.06466 123.541 7.80139 123.254 6.47324L121.299 6.89655C121.666 8.58876 122.507 10.1993 123.821 11.5129L125.235 10.0987ZM123.254 3.35324C123.541 2.02509 124.201 0.761814 125.235 -0.272209L123.821 -1.68642C122.507 -0.372791 121.666 1.23772 121.299 2.92993L123.254 3.35324ZM125.235 -0.272211C126.269 -1.30623 127.532 -1.96566 128.86 -2.25328L128.437 -4.20797C126.745 -3.84151 125.134 -3.00006 123.821 -1.68642L125.235 -0.272211ZM131.98 -2.25328C133.309 -1.96566 134.572 -1.30623 135.606 -0.272211L137.02 -1.68642C135.706 -3.00006 134.096 -3.84151 132.404 -4.20797L131.98 -2.25328ZM135.606 -0.272209C136.64 0.761816 137.299 2.02509 137.587 3.35324L139.542 2.92993C139.175 1.23772 138.334 -0.372791 137.02 -1.68642L135.606 -0.272209ZM137.587 6.47324C137.299 7.80139 136.64 9.06466 135.606 10.0987L137.02 11.5129C138.334 10.1993 139.175 8.58876 139.542 6.89655L137.587 6.47324ZM135.606 10.0987C134.572 11.1327 133.309 11.7921 131.98 12.0798L132.404 14.0345C134.096 13.668 135.706 12.8265 137.02 11.5129L135.606 10.0987ZM128.86 12.0798C127.532 11.7921 126.269 11.1327 125.235 10.0987L123.821 11.5129C125.134 12.8265 126.745 13.668 128.437 14.0345L128.86 12.0798ZM35.4324 110.272C34.3983 111.306 33.1351 111.966 31.8069 112.253L32.2302 114.208C33.9224 113.841 35.5329 113 36.8466 111.686L35.4324 110.272ZM28.6869 112.253C27.3588 111.966 26.0955 111.306 25.0615 110.272L23.6473 111.686C24.9609 113 26.5714 113.841 28.2636 114.208L28.6869 112.253ZM25.0615 110.272C24.0274 109.238 23.368 107.975 23.0804 106.647L21.1257 107.07C21.4922 108.762 22.3336 110.373 23.6473 111.686L25.0615 110.272ZM23.0804 103.527C23.368 102.199 24.0274 100.935 25.0615 99.9013L23.6473 98.4871C22.3336 99.8007 21.4922 101.411 21.1257 103.103L23.0804 103.527ZM25.0615 99.9013C26.0955 98.8672 27.3588 98.2078 28.6869 97.9202L28.2636 95.9655C26.5714 96.332 24.9609 97.1734 23.6473 98.4871L25.0615 99.9013ZM31.8069 97.9202C33.1351 98.2078 34.3983 98.8672 35.4324 99.9013L36.8466 98.4871C35.5329 97.1734 33.9224 96.332 32.2302 95.9655L31.8069 97.9202ZM35.4324 99.9013C36.4664 100.935 37.1258 102.199 37.4134 103.527L39.3681 103.103C39.0017 101.411 38.1602 99.8007 36.8466 98.4871L35.4324 99.9013ZM37.4134 106.647C37.1258 107.975 36.4664 109.238 35.4324 110.272L36.8466 111.686C38.1602 110.373 39.0017 108.762 39.3681 107.07L37.4134 106.647Z" fill="#262626"/>
</svg>
